<?xml version="1.0" encoding="utf-8"?>
<svg version="1.1" id="logo" xmlns="http://www.w3.org/2000/svg" xmlns:xlink="http://www.w3.org/1999/xlink" x="0px" y="0px"
	 viewBox="0 0 600 600" style="enable-background:new 0 0 600 600;" xml:space="preserve">
<style type="text/css">
	.st0{fill-rule:evenodd;clip-rule:evenodd;fill:#70DEFB;}
	.st1{fill:#70DEFB;}
</style>
<g>
	<g>
		<path class="st0" d="M251.7,233.3c14.6,0,86.9,0.2,90.7,0c3.7,0.2,13.2,0.8,12.9-6.3c-1.9-11.5-23.4-83.8-54.8-84.5
			c-37.1-0.8-57.8,71.7-59.5,84.5C239.9,231.1,243.8,233.7,251.7,233.3z M299.8,155.1c23.8,2.4,41.5,65.8,41.5,65.8h-86.8
			C254.5,220.9,270.3,152.7,299.8,155.1z M413.5,335.5l-49-48l-130.3-0.1c0,0-49.6,48.7-48.8,48.9c-3.7,5.3-2.7,16.1,8.7,14
			c1.4-0.1,53.3-16.4,53.3-16.4s1.7,0,2.6,0c8.3,17,19,31.5,40.2,36.3c28.4,6.5,49.4-20.6,55.5-36.3c0.4-0.9,36.6,13.4,51.8,16.7
			C402.4,350.2,417.3,353.5,413.5,335.5z M199.4,336.3l39.1-36.8h6c0,0,0,8.5,2.3,21.5C239.3,322.9,199.4,336.3,199.4,336.3z
			 M295.3,359c-30.1-0.5-41.7-39.3-39.8-59.5c3.8,0,83.6-0.1,85,0C341.2,312.1,332.9,359.7,295.3,359z M397.6,336.6
			c-5.4-2.6-48.2-14.6-48-15c1.2-7.7,2.3-22.3,2.3-22.3l6.7,0.1C358.5,299.5,392.8,332.6,397.6,336.6c0.4,0.2,0.6,0.3,0.6,0.4
			C398.2,337.1,398,336.9,397.6,336.6z M243.5,360.7H239c-1.7,0-3,1.3-3,3v58.6c0,1.7,1.3,3,3,3h4.5c1.7,0,3-1.3,3-3v-58.6
			C246.5,362.1,245.1,360.7,243.5,360.7z M301,390.4h-6.2c-1.7,0-3,1.3-3,3v62.1c0,1.7,1.3,3,3,3h6.2c1.7,0,3-1.3,3-3v-62.1
			C304,391.8,302.7,390.4,301,390.4z M358.6,362.5h-4.5c-1.7,0-3,1.3-3,3v62.1c0,1.7,1.3,3,3,3h4.5c1.7,0,3-1.3,3-3v-62.1
			C361.6,363.8,360.2,362.5,358.6,362.5z M297.9,175.7c-10.1,0-18.3,8.2-18.3,18.3s8.2,18.3,18.3,18.3c10.1,0,18.3-8.2,18.3-18.3
			S308,175.7,297.9,175.7z M298,204.5c-5.8,0-10.5-4.7-10.5-10.5s4.7-10.5,10.5-10.5c5.8,0,10.5,4.7,10.5,10.5
			S303.8,204.5,298,204.5z"/>
	</g>
</g>
<g>
	<g>
		<path class="st1" d="M255.8,255.3c0-1.3-0.2-2.6-0.7-3.6c-0.5-1.1-1.1-1.9-2-2.6c-0.8-0.6-1.7-1-2.5-1.2c-0.8-0.1-2-0.2-3.5-0.2
			h-8V273h5.6v-10h2.8l3.4,10h6.1l-4.7-11.1C254.6,260.7,255.8,258.4,255.8,255.3z M247.1,258.9h-2.4v-7.1h2.2
			c0.8,0,1.5,0.1,1.9,0.3c0.4,0.2,0.8,0.6,1.1,1.1c0.3,0.5,0.5,1.2,0.5,2.1C250.3,257.7,249.3,258.9,247.1,258.9z M268.7,247.3
			c-6.1,0-9.2,4.3-9.2,13c0,4.3,0.8,7.5,2.3,9.7c1.5,2.2,3.8,3.3,6.9,3.3c6.1,0,9.2-4.4,9.2-13.1c0-4.3-0.8-7.6-2.4-9.8
			C274,248.4,271.7,247.3,268.7,247.3z M271.2,267.2c-0.5,1.1-1.4,1.7-2.5,1.7c-1.2,0-2-0.6-2.5-1.8c-0.5-1.2-0.8-3.4-0.8-6.8
			c0-3.4,0.3-5.7,0.8-6.8c0.5-1.1,1.4-1.7,2.5-1.7c1.2,0,2,0.6,2.5,1.7c0.5,1.1,0.8,3.4,0.8,6.8C272,263.8,271.8,266.1,271.2,267.2z
			 M291.3,268.9c-1.3,0-2.2-0.6-2.8-1.8c-0.6-1.2-0.9-3.3-0.9-6.4c0-3.5,0.3-5.8,1-7.1c0.7-1.2,1.6-1.8,2.8-1.8
			c2.2,0,3.4,1.9,3.5,5.6l5.1-0.4c-0.5-6.5-3.3-9.8-8.6-9.8c-3.2,0-5.6,1.2-7.2,3.5c-1.6,2.3-2.4,5.5-2.4,9.6c0,4.1,0.8,7.2,2.4,9.6
			c1.6,2.3,4,3.5,7.1,3.5c2.6,0,4.6-0.9,6.2-2.6c1.6-1.7,2.4-4,2.6-6.7l-5.1-0.3C294.6,267.2,293.4,268.9,291.3,268.9z M321.7,247.7
			H316l-6.1,10.6v-10.6h-5.6V273h5.6v-8.6l2.1-3.1l4.5,11.7h5.8l-6.9-16L321.7,247.7z M325.6,273H341v-4.5h-9.8v-6.2h7.6v-4.3h-7.6
			v-5.9h9.8v-4.3h-15.4V273z M343.3,247.7v4.8h5V273h5.6v-20.6h5.2v-4.8H343.3z"/>
	</g>
</g>
</svg>
